<svg xmlns="http://www.w3.org/2000/svg" width="48" height="48" id="twitter"><path d="M5.26 35.84a15.71 15.71 0 0 0 11.18-3.11c-.49-.08-.88-.12-1.27-.21a7.69 7.69 0 0 1-5.69-4.79c-.18-.43-.13-.46.35-.42a8.41 8.41 0 0 0 2.8-.16 9.21 9.21 0 0 1-2.34-1 7.81 7.81 0 0 1-3.68-6.05v-.2c0-.48 0-.49.47-.28a7.3 7.3 0 0 0 2.91.73 8.57 8.57 0 0 1-1.12-1 7.81 7.81 0 0 1-1.33-9c.15-.28.24-.32.46 0a21.76 21.76 0 0 0 6.74 5.39 21.21 21.21 0 0 0 8.14 2.34c.73.06.72.05.64-.71a7.79 7.79 0 0 1 13.08-6.62.76.76 0 0 0 .76.21 15.8 15.8 0 0 0 4-1.53c.12-.06.21-.17.43-.14a8 8 0 0 1-3.07 4.09 14.17 14.17 0 0 0 4-1.09c0 .21-.08.3-.15.4A15.65 15.65 0 0 1 39.4 16a.85.85 0 0 0-.37.78A22.14 22.14 0 0 1 35 30.13a20.68 20.68 0 0 1-14.3 9 22 22 0 0 1-14-2.31c-.48-.25-.94-.54-1.42-.81Z"></path></svg>